<svg id="cruz-icon" xmlns="http://www.w3.org/2000/svg" viewBox="0 0 220.75 220.75"><defs><style>.cls-1,.cls-2,.cls-3{fill:#00a79d;}.cls-1{opacity:0.51;}.cls-2{opacity:0.64;}</style></defs><title>star</title><g id="Ebene_3" data-name="Ebene 3"><polygon class="cls-1" points="88.62 96.68 77.3 96.68 85.31 104.68 96.63 104.68 88.62 96.68"/><polygon class="cls-1" points="111.26 96.68 99.94 96.68 107.94 104.68 119.27 104.68 111.26 96.68"/><polygon class="cls-1" points="127.27 112.69 115.95 112.69 123.95 120.69 135.28 120.69 127.27 112.69"/><polygon class="cls-1" points="104.63 112.69 93.31 112.69 101.31 120.69 112.63 120.69 104.63 112.69"/><polygon class="cls-1" points="43.34 96.68 32.02 96.68 40.02 104.68 51.34 104.68 43.34 96.68"/><polygon class="cls-1" points="65.98 96.68 54.66 96.68 62.66 104.68 73.98 104.68 65.98 96.68"/><polygon class="cls-1" points="81.99 112.69 70.67 112.69 78.67 120.69 89.99 120.69 81.99 112.69"/><polygon class="cls-1" points="59.35 112.69 48.03 112.69 56.03 120.69 67.35 120.69 59.35 112.69"/><polygon class="cls-1" points="11.32 64.66 0 64.66 8.01 72.66 19.32 72.66 11.32 64.66"/><polygon class="cls-1" points="33.96 64.66 22.64 64.66 30.65 72.66 41.97 72.66 33.96 64.66"/><polygon class="cls-1" points="49.97 80.67 38.65 80.67 46.66 88.67 57.98 88.67 49.97 80.67"/><polygon class="cls-1" points="27.33 80.67 16.01 80.67 24.01 88.67 35.33 88.67 27.33 80.67"/><polygon class="cls-1" points="56.6 64.66 45.28 64.66 53.29 72.66 64.61 72.66 56.6 64.66"/><polygon class="cls-1" points="79.24 64.66 67.92 64.66 75.93 72.66 87.25 72.66 79.24 64.66"/><polygon class="cls-1" points="95.25 80.67 83.93 80.67 91.94 88.67 103.26 88.67 95.25 80.67"/><polygon class="cls-1" points="72.61 80.67 61.29 80.67 69.3 88.67 80.62 88.67 72.61 80.67"/><polygon class="cls-1" points="96.67 132.13 96.67 143.45 104.68 135.45 104.68 124.13 96.67 132.13"/><polygon class="cls-1" points="96.67 109.49 96.67 120.81 104.68 112.81 104.68 101.49 96.67 109.49"/><polygon class="cls-1" points="112.68 93.48 112.68 104.8 120.69 96.8 120.69 85.48 112.68 93.48"/><polygon class="cls-1" points="112.68 116.12 112.68 127.44 120.69 119.44 120.69 108.12 112.68 116.12"/><polygon class="cls-1" points="96.67 177.41 96.67 188.73 104.68 180.73 104.68 169.41 96.67 177.41"/><polygon class="cls-1" points="96.67 154.77 96.67 166.09 104.68 158.09 104.68 146.77 96.67 154.77"/><polygon class="cls-1" points="112.68 138.76 112.68 150.08 120.69 142.08 120.69 130.76 112.68 138.76"/><polygon class="cls-1" points="112.68 161.4 112.68 172.72 120.69 164.72 120.69 153.4 112.68 161.4"/><polygon class="cls-1" points="64.66 209.43 64.66 220.75 72.66 212.75 72.66 201.43 64.66 209.43"/><polygon class="cls-1" points="64.66 186.79 64.66 198.11 72.66 190.11 72.66 178.79 64.66 186.79"/><polygon class="cls-1" points="80.67 170.78 80.67 182.1 88.67 174.1 88.67 162.78 80.67 170.78"/><polygon class="cls-1" points="80.67 193.42 80.67 204.74 88.67 196.74 88.67 185.42 80.67 193.42"/><polygon class="cls-1" points="64.66 164.15 64.66 175.47 72.66 167.47 72.66 156.15 64.66 164.15"/><polygon class="cls-1" points="64.66 141.51 64.66 152.83 72.66 144.82 72.66 133.5 64.66 141.51"/><polygon class="cls-1" points="80.67 125.5 80.67 136.82 88.67 128.82 88.67 117.5 80.67 125.5"/><polygon class="cls-1" points="80.67 148.14 80.67 159.46 88.67 151.46 88.67 140.14 80.67 148.14"/><polygon class="cls-1" points="104.68 85.31 96.67 77.3 96.67 88.62 104.68 96.63 104.68 85.31"/><polygon class="cls-1" points="120.69 101.31 112.68 93.31 112.68 104.63 120.69 112.64 120.69 101.31"/><polygon class="cls-1" points="120.69 123.95 112.68 115.95 112.68 127.27 120.69 135.28 120.69 123.95"/><polygon class="cls-1" points="104.68 107.95 96.67 99.94 96.67 111.26 104.68 119.27 104.68 107.95"/><polygon class="cls-1" points="72.66 53.29 64.66 45.28 64.66 56.6 72.66 64.61 72.66 53.29"/><polygon class="cls-1" points="88.67 69.3 80.67 61.29 80.67 72.61 88.67 80.62 88.67 69.3"/><polygon class="cls-1" points="88.67 91.94 80.67 83.93 80.67 95.25 88.67 103.26 88.67 91.94"/><polygon class="cls-1" points="72.66 75.93 64.66 67.92 64.66 79.24 72.66 87.25 72.66 75.93"/><polygon class="cls-1" points="72.66 8.01 64.66 0 64.66 11.32 72.66 19.33 72.66 8.01"/><polygon class="cls-1" points="88.67 24.02 80.67 16.01 80.67 27.33 88.67 35.34 88.67 24.02"/><polygon class="cls-1" points="88.67 46.66 80.67 38.65 80.67 49.97 88.67 57.98 88.67 46.66"/><polygon class="cls-1" points="72.66 30.65 64.66 22.64 64.66 33.96 72.66 41.97 72.66 30.65"/><polygon class="cls-1" points="104.68 40.03 96.67 32.02 96.67 43.34 104.68 51.35 104.68 40.03"/><polygon class="cls-1" points="120.69 56.04 112.68 48.03 112.68 59.35 120.69 67.36 120.69 56.04"/><polygon class="cls-1" points="120.69 78.68 112.68 70.67 112.68 81.99 120.69 90 120.69 78.68"/><polygon class="cls-1" points="104.68 62.67 96.67 54.66 96.67 65.98 104.68 73.99 104.68 62.67"/><polygon class="cls-1" points="116.07 135.45 124.08 143.45 124.08 132.13 116.07 124.13 116.07 135.45"/><polygon class="cls-1" points="100.06 119.44 108.07 127.44 108.07 116.12 100.06 108.12 100.06 119.44"/><polygon class="cls-1" points="100.06 96.8 108.07 104.8 108.07 93.48 100.06 85.48 100.06 96.8"/><polygon class="cls-1" points="116.07 112.81 124.08 120.81 124.08 109.49 116.07 101.48 116.07 112.81"/><polygon class="cls-1" points="148.09 167.47 156.09 175.47 156.09 164.15 148.09 156.14 148.09 167.47"/><polygon class="cls-1" points="132.08 151.46 140.08 159.46 140.08 148.14 132.08 140.13 132.08 151.46"/><polygon class="cls-1" points="132.08 128.81 140.08 136.82 140.08 125.5 132.08 117.49 132.08 128.81"/><polygon class="cls-1" points="148.09 144.82 156.09 152.83 156.09 141.51 148.09 133.5 148.09 144.82"/><polygon class="cls-1" points="148.09 212.75 156.09 220.75 156.09 209.43 148.09 201.43 148.09 212.75"/><polygon class="cls-1" points="132.08 196.74 140.08 204.74 140.08 193.42 132.08 185.42 132.08 196.74"/><polygon class="cls-1" points="132.08 174.1 140.08 182.1 140.08 170.78 132.08 162.78 132.08 174.1"/><polygon class="cls-1" points="148.09 190.11 156.09 198.11 156.09 186.79 148.09 178.79 148.09 190.11"/><polygon class="cls-1" points="116.07 180.73 124.08 188.73 124.08 177.41 116.07 169.41 116.07 180.73"/><polygon class="cls-1" points="100.06 164.72 108.07 172.72 108.07 161.41 100.06 153.4 100.06 164.72"/><polygon class="cls-1" points="100.06 142.08 108.07 150.08 108.07 138.76 100.06 130.76 100.06 142.08"/><polygon class="cls-1" points="116.07 158.09 124.08 166.09 124.08 154.77 116.07 146.77 116.07 158.09"/><polygon class="cls-1" points="85.31 116.07 77.3 124.08 88.62 124.08 96.63 116.07 85.31 116.07"/><polygon class="cls-1" points="101.31 100.06 93.31 108.07 104.63 108.07 112.64 100.06 101.31 100.06"/><polygon class="cls-1" points="123.96 100.06 115.95 108.07 127.27 108.07 135.28 100.06 123.96 100.06"/><polygon class="cls-1" points="107.95 116.07 99.94 124.08 111.26 124.08 119.27 116.07 107.95 116.07"/><polygon class="cls-1" points="53.29 148.09 45.28 156.1 56.6 156.1 64.61 148.09 53.29 148.09"/><polygon class="cls-1" points="69.3 132.08 61.29 140.09 72.61 140.09 80.62 132.08 69.3 132.08"/><polygon class="cls-1" points="91.94 132.08 83.93 140.09 95.25 140.09 103.26 132.08 91.94 132.08"/><polygon class="cls-1" points="75.93 148.09 67.92 156.1 79.24 156.1 87.25 148.09 75.93 148.09"/><polygon class="cls-1" points="8.01 148.09 0 156.1 11.32 156.1 19.32 148.09 8.01 148.09"/><polygon class="cls-1" points="24.01 132.08 16.01 140.09 27.33 140.09 35.34 132.08 24.01 132.08"/><polygon class="cls-1" points="46.66 132.08 38.65 140.09 49.97 140.09 57.98 132.08 46.66 132.08"/><polygon class="cls-1" points="30.65 148.09 22.64 156.1 33.96 156.1 41.97 148.09 30.65 148.09"/><polygon class="cls-1" points="40.02 116.07 32.02 124.08 43.34 124.08 51.34 116.07 40.02 116.07"/><polygon class="cls-1" points="56.03 100.06 48.03 108.07 59.35 108.07 67.35 100.06 56.03 100.06"/><polygon class="cls-1" points="78.67 100.06 70.67 108.07 81.99 108.07 89.99 100.06 78.67 100.06"/><polygon class="cls-1" points="62.66 116.07 54.66 124.08 65.98 124.08 73.98 116.07 62.66 116.07"/><polygon class="cls-1" points="132.13 124.08 143.45 124.08 135.44 116.07 124.13 116.07 132.13 124.08"/><polygon class="cls-1" points="109.49 124.08 120.81 124.08 112.81 116.07 101.49 116.07 109.49 124.08"/><polygon class="cls-1" points="93.48 108.07 104.8 108.07 96.8 100.06 85.48 100.06 93.48 108.07"/><polygon class="cls-1" points="116.12 108.07 127.44 108.07 119.44 100.06 108.12 100.06 116.12 108.07"/><polygon class="cls-1" points="177.41 124.08 188.73 124.08 180.72 116.07 169.41 116.07 177.41 124.08"/><polygon class="cls-1" points="154.77 124.08 166.09 124.08 158.09 116.07 146.76 116.07 154.77 124.08"/><polygon class="cls-1" points="138.76 108.07 150.08 108.07 142.08 100.06 130.76 100.06 138.76 108.07"/><polygon class="cls-1" points="161.4 108.07 172.72 108.07 164.72 100.06 153.4 100.06 161.4 108.07"/><polygon class="cls-1" points="209.43 156.1 220.75 156.1 212.74 148.09 201.42 148.09 209.43 156.1"/><polygon class="cls-1" points="186.79 156.1 198.11 156.1 190.1 148.09 178.78 148.09 186.79 156.1"/><polygon class="cls-1" points="170.78 140.09 182.1 140.09 174.09 132.08 162.77 132.08 170.78 140.09"/><polygon class="cls-1" points="193.42 140.09 204.74 140.09 196.73 132.08 185.41 132.08 193.42 140.09"/><polygon class="cls-1" points="164.15 156.1 175.47 156.1 167.46 148.09 156.15 148.09 164.15 156.1"/><polygon class="cls-1" points="141.51 156.1 152.83 156.1 144.82 148.09 133.5 148.09 141.51 156.1"/><polygon class="cls-1" points="125.5 140.09 136.82 140.09 128.82 132.08 117.5 132.08 125.5 140.09"/><polygon class="cls-1" points="148.14 140.09 159.46 140.09 151.46 132.08 140.13 132.08 148.14 140.09"/><polygon class="cls-1" points="135.45 104.68 143.45 96.68 132.13 96.68 124.13 104.68 135.45 104.68"/><polygon class="cls-1" points="119.44 120.69 127.44 112.69 116.12 112.69 108.12 120.69 119.44 120.69"/><polygon class="cls-1" points="96.8 120.69 104.8 112.69 93.48 112.69 85.47 120.69 96.8 120.69"/><polygon class="cls-1" points="112.8 104.68 120.81 96.68 109.49 96.68 101.48 104.68 112.8 104.68"/><polygon class="cls-1" points="167.46 72.66 175.47 64.66 164.15 64.66 156.14 72.66 167.46 72.66"/><polygon class="cls-1" points="151.45 88.67 159.46 80.67 148.14 80.67 140.13 88.67 151.45 88.67"/><polygon class="cls-1" points="128.81 88.67 136.82 80.67 125.5 80.67 117.49 88.67 128.81 88.67"/><polygon class="cls-1" points="144.82 72.66 152.83 64.66 141.5 64.66 133.5 72.66 144.82 72.66"/><polygon class="cls-1" points="212.75 72.66 220.75 64.66 209.43 64.66 201.43 72.66 212.75 72.66"/><polygon class="cls-1" points="196.74 88.67 204.74 80.67 193.42 80.67 185.42 88.67 196.74 88.67"/><polygon class="cls-1" points="174.09 88.67 182.1 80.67 170.78 80.67 162.78 88.67 174.09 88.67"/><polygon class="cls-1" points="190.1 72.66 198.11 64.66 186.79 64.66 178.78 72.66 190.1 72.66"/><polygon class="cls-1" points="180.73 104.68 188.73 96.68 177.41 96.68 169.41 104.68 180.73 104.68"/><polygon class="cls-1" points="164.72 120.69 172.72 112.69 161.4 112.69 153.4 120.69 164.72 120.69"/><polygon class="cls-1" points="142.08 120.69 150.08 112.69 138.76 112.69 130.76 120.69 142.08 120.69"/><polygon class="cls-1" points="158.09 104.68 166.09 96.68 154.77 96.68 146.77 104.68 158.09 104.68"/><polygon class="cls-2" points="124.08 88.62 124.08 77.3 116.07 85.31 116.07 96.63 124.08 88.62"/><polygon class="cls-2" points="124.08 111.27 124.08 99.94 116.07 107.95 116.07 119.27 124.08 111.27"/><polygon class="cls-2" points="108.07 127.27 108.07 115.95 100.06 123.96 100.06 135.28 108.07 127.27"/><polygon class="cls-2" points="108.07 104.63 108.07 93.31 100.06 101.32 100.06 112.64 108.07 104.63"/><polygon class="cls-2" points="124.08 43.34 124.08 32.02 116.07 40.02 116.07 51.34 124.08 43.34"/><polygon class="cls-2" points="124.08 65.98 124.08 54.66 116.07 62.66 116.07 73.98 124.08 65.98"/><polygon class="cls-2" points="108.07 81.99 108.07 70.67 100.06 78.67 100.06 89.99 108.07 81.99"/><polygon class="cls-2" points="108.07 59.35 108.07 48.03 100.06 56.03 100.06 67.35 108.07 59.35"/><polygon class="cls-2" points="156.09 11.32 156.09 0 148.09 8 148.09 19.33 156.09 11.32"/><polygon class="cls-2" points="156.09 33.96 156.09 22.64 148.09 30.65 148.09 41.97 156.09 33.96"/><polygon class="cls-2" points="140.08 49.97 140.08 38.65 132.08 46.66 132.08 57.98 140.08 49.97"/><polygon class="cls-2" points="140.08 27.33 140.08 16.01 132.08 24.01 132.08 35.34 140.08 27.33"/><polygon class="cls-2" points="156.09 56.6 156.09 45.28 148.09 53.29 148.09 64.61 156.09 56.6"/><polygon class="cls-2" points="156.09 79.25 156.09 67.93 148.09 75.93 148.09 87.25 156.09 79.25"/><polygon class="cls-2" points="140.08 95.26 140.08 83.94 132.08 91.94 132.08 103.26 140.08 95.26"/><polygon class="cls-2" points="140.08 72.61 140.08 61.29 132.08 69.3 132.08 80.62 140.08 72.61"/><polygon class="cls-2" points="57.69 116.69 80.33 116.69 64.32 100.68 41.68 100.68 57.69 116.69"/><polygon class="cls-2" points="25.67 84.67 48.31 84.67 32.3 68.66 9.66 68.66 25.67 84.67"/><polygon class="cls-2" points="70.95 84.67 93.59 84.67 77.58 68.66 54.94 68.66 70.95 84.67"/><polygon class="cls-2" points="116.69 163.06 116.69 140.42 100.68 156.43 100.68 179.07 116.69 163.06"/><polygon class="cls-2" points="84.67 195.08 84.67 172.44 68.66 188.45 68.66 211.09 84.67 195.08"/><polygon class="cls-2" points="84.67 149.8 84.67 127.16 68.66 143.17 68.66 165.81 84.67 149.8"/><polygon class="cls-2" points="68.66 77.58 84.67 93.59 84.67 70.95 68.66 54.95 68.66 77.58"/><polygon class="cls-2" points="68.66 32.3 84.67 48.31 84.67 25.68 68.66 9.67 68.66 32.3"/><polygon class="cls-2" points="100.68 64.32 116.69 80.33 116.69 57.69 100.68 41.69 100.68 64.32"/><polygon class="cls-2" points="152.09 143.17 136.08 127.16 136.08 149.8 152.09 165.81 152.09 143.17"/><polygon class="cls-2" points="152.09 188.45 136.08 172.44 136.08 195.08 152.09 211.09 152.09 188.45"/><polygon class="cls-2" points="120.07 156.43 104.06 140.42 104.06 163.06 120.07 179.07 120.07 156.43"/><polygon class="cls-2" points="77.58 152.09 93.59 136.09 70.95 136.09 54.94 152.09 77.58 152.09"/><polygon class="cls-2" points="32.3 152.09 48.31 136.09 25.67 136.09 9.66 152.09 32.3 152.09"/><polygon class="cls-2" points="64.32 120.08 80.33 104.06 57.69 104.06 41.68 120.08 64.32 120.08"/><polygon class="cls-2" points="163.06 104.06 140.42 104.06 156.43 120.08 179.07 120.08 163.06 104.06"/><polygon class="cls-2" points="195.07 136.09 172.44 136.09 188.44 152.09 211.08 152.09 195.07 136.09"/><polygon class="cls-2" points="149.8 136.09 127.16 136.09 143.17 152.09 165.81 152.09 149.8 136.09"/><polygon class="cls-2" points="143.16 68.66 127.16 84.67 149.8 84.67 165.8 68.66 143.16 68.66"/><polygon class="cls-2" points="188.45 68.66 172.44 84.67 195.08 84.67 211.09 68.66 188.45 68.66"/><polygon class="cls-2" points="156.43 100.68 140.42 116.69 163.06 116.69 179.07 100.68 156.43 100.68"/><polygon class="cls-2" points="104.06 57.69 104.06 80.33 120.07 64.32 120.07 41.68 104.06 57.69"/><polygon class="cls-2" points="136.08 25.67 136.08 48.31 152.09 32.3 152.09 9.66 136.08 25.67"/><polygon class="cls-2" points="136.08 70.96 136.08 93.6 152.09 77.59 152.09 54.95 136.08 70.96"/></g><polygon class="cls-3" points="125.11 111.4 124.09 110.38 125.11 109.36 140.15 109.36 159.46 90.05 132.15 90.05 121.52 100.68 120.07 100.68 120.07 99.24 130.71 88.6 130.71 61.29 111.4 80.6 111.4 95.64 110.38 96.66 109.35 95.64 109.35 80.6 90.04 61.29 90.04 88.6 100.68 99.23 100.68 100.68 99.23 100.68 88.6 90.05 61.29 90.05 80.6 109.36 95.64 109.36 96.66 110.38 95.64 111.4 80.6 111.4 61.29 130.71 88.6 130.71 99.23 120.08 100.68 120.08 100.68 121.52 90.04 132.15 90.04 159.46 109.35 140.15 109.35 125.11 110.38 124.09 111.4 125.11 111.4 140.15 130.71 159.46 130.71 132.15 120.07 121.52 120.07 120.08 121.52 120.08 132.15 130.71 159.46 130.71 140.15 111.4 125.11 111.4"/></svg>